<?xml version="1.0" standalone="no"?>
<!DOCTYPE svg PUBLIC "-//W3C//DTD SVG 20010904//EN"
 "http://www.w3.org/TR/2001/REC-SVG-20010904/DTD/svg10.dtd">
<svg version="1.0" xmlns="http://www.w3.org/2000/svg"
 width="1339.000000pt" height="507.000000pt" viewBox="0 0 1339.000000 507.000000"
 preserveAspectRatio="xMidYMid meet">

<g transform="translate(0.000000,507.000000) scale(0.100000,-0.100000)"
fill="#000000" stroke="none">
<path d="M4790 3708 c-153 -12 -252 -38 -371 -98 -342 -170 -518 -514 -487
-951 18 -257 132 -489 313 -642 85 -72 237 -148 355 -179 70 -18 114 -22 250
-22 143 -1 175 2 243 22 144 41 258 114 337 213 l40 51 0 -136 0 -136 150 0
150 0 0 505 0 505 -435 0 -435 0 0 -155 0 -155 254 0 255 0 -16 -52 c-23 -81
-50 -127 -112 -192 -61 -65 -154 -115 -249 -135 -74 -15 -237 -14 -303 3 -31
8 -62 16 -70 18 -8 2 -16 5 -19 8 -3 3 -23 14 -45 25 -67 34 -169 138 -209
215 -55 104 -76 200 -76 345 0 212 46 341 165 461 85 86 167 129 286 150 120
21 285 2 374 -43 51 -27 140 -101 171 -144 16 -22 36 -50 45 -61 l16 -21 34
20 c19 11 91 50 161 87 l128 67 -14 27 c-29 54 -129 164 -194 213 -88 65 -227
133 -328 159 -100 25 -252 37 -364 28z"/>
<path d="M6240 2760 l0 -930 190 0 190 0 0 410 0 411 62 -3 62 -3 240 -407
240 -408 223 0 c177 0 223 3 217 13 -4 6 -128 193 -276 414 -147 222 -268 407
-268 412 0 5 21 14 48 21 71 17 161 69 215 123 124 123 158 350 83 551 -49
130 -130 215 -254 267 -129 53 -185 59 -598 59 l-374 0 0 -930z m762 595 c95
-34 157 -139 141 -241 -22 -142 -125 -195 -383 -198 l-135 -1 -3 234 -2 234
167 -6 c120 -4 182 -10 215 -22z"/>
<path d="M8502 3663 c-14 -41 -659 -1795 -667 -1815 -7 -17 6 -18 186 -18
l194 0 69 195 69 195 395 -2 395 -3 67 -190 67 -190 193 -3 192 -2 -6 22 c-3
13 -156 430 -339 928 l-333 905 -236 3 -236 2 -10 -27z m392 -736 c75 -214
136 -391 136 -395 0 -8 -556 -10 -564 -2 -2 3 59 186 137 407 78 221 145 396
149 390 3 -7 67 -187 142 -400z"/>
<path d="M10020 2760 l0 -930 190 0 190 0 0 930 0 930 -190 0 -190 0 0 -930z"/>
<path d="M10950 2760 l0 -930 190 0 190 0 2 669 3 669 414 -669 414 -669 224
0 223 0 0 930 0 930 -190 0 -190 0 0 -672 0 -671 -206 329 c-114 181 -211 331
-215 332 -5 2 -9 8 -9 14 0 6 -93 159 -206 339 l-207 329 -218 0 -219 0 0
-930z"/>
<path d="M1541 3522 c-11 -59 -21 -118 -21 -131 0 -46 40 -109 92 -148 l51
-37 29 35 c109 131 92 235 -55 337 l-74 51 -22 -107z"/>
<path d="M2205 3366 c-230 -208 -269 -262 -269 -376 0 -62 45 -233 64 -245 14
-9 212 66 264 99 64 41 80 59 106 119 40 90 24 217 -52 423 l-23 61 -90 -81z"/>
<path d="M2980 3380 c-8 -5 -44 -19 -80 -31 -177 -59 -230 -117 -230 -252 l0
-49 104 4 c122 4 146 16 185 92 19 37 26 69 30 146 3 55 6 100 6 100 0 0 -7
-5 -15 -10z"/>
<path d="M1040 3312 c0 -5 14 -48 30 -97 52 -155 91 -193 206 -203 l61 -4 6
63 c7 70 -2 126 -26 163 -22 34 -84 69 -124 71 -18 1 -37 5 -40 9 -9 9 -113 7
-113 -2z"/>
<path d="M1733 3022 c-28 -62 -53 -181 -53 -253 0 -188 95 -388 282 -589 126
-135 196 -265 239 -443 26 -107 26 -298 0 -427 -26 -124 -78 -281 -101 -301
-10 -9 -47 -21 -82 -28 -94 -17 -148 -33 -148 -42 0 -5 -6 -6 -14 -3 -7 3 -31
-2 -52 -11 -22 -9 -48 -18 -59 -21 -33 -6 -149 -57 -157 -68 -4 -6 -8 -7 -8
-2 0 5 -6 4 -12 -2 -7 -6 -17 -10 -21 -10 -5 0 -11 -3 -15 -6 -3 -3 295 -6
662 -6 529 0 667 3 664 13 -8 26 -209 110 -392 162 -56 15 -58 17 -51 43 12
51 17 435 6 507 -29 193 -68 314 -138 435 -42 71 -157 195 -214 228 -56 34
-180 169 -230 252 -79 132 -109 240 -109 396 0 60 5 126 11 147 13 48 8 66 -8
29z"/>
<path d="M1105 2749 c-87 -16 -154 -57 -297 -179 l-75 -65 51 -21 c28 -12 101
-46 162 -78 211 -107 290 -113 421 -30 54 34 133 101 133 113 0 3 -18 29 -41
56 -137 169 -236 226 -354 204z"/>
<path d="M2550 2620 c-145 -7 -200 -27 -246 -87 -32 -42 -86 -165 -76 -174 4
-4 44 -21 89 -38 111 -42 181 -43 245 -2 25 16 57 44 72 64 23 30 106 217 106
239 0 4 -15 7 -32 6 -18 0 -89 -4 -158 -8z"/>
<path d="M2825 2240 c-38 -8 -81 -32 -123 -67 l-32 -28 44 -56 c66 -85 99
-104 172 -104 66 0 86 10 193 95 l53 42 -99 54 c-107 57 -161 74 -208 64z"/>
<path d="M1600 2149 c-165 -35 -248 -86 -291 -181 -33 -74 -33 -212 0 -361
l24 -107 31 25 c17 14 78 57 136 96 126 85 202 157 231 218 19 41 21 57 16
151 -6 114 -21 181 -40 179 -7 0 -55 -10 -107 -20z"/>
<path d="M4025 1380 c-4 -6 -11 -8 -16 -5 -13 8 -67 -51 -76 -83 -14 -49 -9
-453 5 -494 14 -38 48 -72 64 -62 4 3 8 -1 8 -8 0 -9 3 -9 10 2 9 13 10 13 10
0 0 -13 1 -13 10 0 9 13 10 13 10 0 0 -13 1 -13 10 0 8 12 10 12 11 -5 l0 -20
9 20 c5 11 9 14 9 6 1 -11 4 -11 18 0 11 10 14 10 9 2 -4 -7 -2 -13 3 -13 6 0
11 5 11 11 0 5 3 8 8 6 17 -10 54 15 66 45 7 18 17 61 20 96 6 57 5 62 -12 62
-17 0 -20 -9 -24 -71 -3 -63 -7 -74 -31 -95 -40 -34 -128 -34 -162 0 -33 34
-37 63 -33 309 l3 219 33 29 c24 22 42 29 73 29 82 0 119 -43 119 -136 0 -38
3 -44 20 -44 19 0 20 4 14 53 -9 75 -28 114 -66 137 -35 21 -122 28 -133 10z"/>
<path d="M5643 1369 c-72 -36 -78 -58 -78 -319 0 -245 5 -270 61 -306 64 -42
185 -36 236 13 41 39 50 105 46 326 -3 161 -6 198 -22 229 -35 72 -155 101
-243 57z m173 -36 c43 -27 49 -65 49 -288 0 -187 -2 -213 -19 -241 -43 -71
-154 -76 -216 -9 -25 26 -25 30 -29 218 -3 206 6 282 39 312 39 35 129 39 176
8z"/>
<path d="M6662 1370 c-34 -15 -47 -29 -63 -65 -19 -43 -20 -63 -17 -270 3
-245 4 -249 70 -298 37 -28 152 -28 200 -1 64 38 69 60 66 326 -3 222 -4 238
-24 265 -46 61 -149 81 -232 43z m168 -39 c46 -33 50 -52 50 -279 0 -241 -5
-262 -68 -289 -48 -21 -79 -20 -124 1 -62 30 -68 55 -68 285 0 249 10 281 93
301 41 10 86 3 117 -19z"/>
<path d="M7834 1379 c-68 -20 -110 -93 -102 -179 7 -74 35 -102 153 -159 80
-39 110 -58 125 -83 39 -65 17 -181 -37 -194 -13 -4 -23 -9 -23 -13 0 -11
-102 3 -127 17 -24 13 -43 66 -43 120 0 28 -3 32 -26 32 -26 0 -27 -1 -20 -46
15 -109 66 -156 171 -156 75 0 114 19 144 72 23 42 28 127 10 163 -22 43 -81
88 -164 126 -94 44 -125 79 -125 143 0 101 80 160 175 128 49 -16 73 -51 81
-121 6 -50 10 -59 27 -59 18 0 19 5 14 59 -5 62 -32 121 -54 121 -7 0 -13 4
-13 9 0 25 -104 38 -166 20z"/>
<path d="M9504 1371 c-65 -29 -69 -49 -69 -321 0 -256 3 -273 57 -313 20 -15
43 -20 87 -20 100 0 141 41 149 153 4 60 2 70 -12 70 -12 0 -16 -10 -16 -43 0
-23 -4 -57 -10 -76 -10 -35 -43 -74 -54 -64 -3 4 -6 1 -6 -6 0 -7 -4 -10 -8
-7 -5 3 -31 6 -59 7 -43 2 -53 6 -71 33 -20 29 -21 46 -24 266 -2 175 1 241
10 257 29 52 127 70 175 33 28 -22 47 -74 47 -127 0 -24 5 -33 16 -33 14 0 16
9 11 58 -2 32 -12 73 -21 90 -30 59 -124 79 -202 43z"/>
<path d="M9926 1380 c-15 -5 -37 -17 -48 -27 -45 -40 -48 -60 -48 -300 0 -255
5 -279 69 -317 42 -24 143 -26 191 -3 71 34 75 52 75 317 0 208 -2 239 -18
268 -32 59 -135 87 -221 62z m152 -47 c47 -30 54 -68 50 -297 -3 -234 -6 -243
-68 -273 -30 -14 -72 -18 -113 -10 -6 1 -25 14 -42 29 l-30 28 -3 226 c-3 241
1 271 42 298 44 28 120 28 164 -1z"/>
<path d="M10320 1368 c-56 -29 -80 -73 -80 -149 0 -84 24 -114 137 -169 140
-69 170 -105 159 -194 -4 -38 -13 -57 -34 -78 -27 -24 -36 -26 -100 -25 -80 2
-97 14 -107 77 -15 87 -17 90 -36 90 -50 0 -3 -148 59 -183 45 -26 139 -27
182 -1 57 33 75 67 75 143 0 94 -24 123 -154 190 -120 62 -141 85 -141 155 0
68 27 111 77 125 50 14 67 14 108 -3 43 -18 65 -61 65 -126 0 -43 3 -50 20
-50 17 0 20 7 20 53 0 101 -51 158 -147 165 -46 3 -67 -1 -103 -20z"/>
<path d="M11083 1371 c-54 -25 -83 -79 -83 -154 0 -83 25 -111 152 -175 130
-65 153 -92 146 -178 -7 -76 -34 -103 -117 -113 -33 -4 -61 -4 -61 0 0 4 -9
10 -19 14 -26 8 -51 64 -51 114 0 38 -2 41 -26 41 -26 0 -27 -1 -21 -51 12
-102 67 -152 167 -152 103 0 161 52 168 153 4 53 1 65 -22 100 -29 43 -74 76
-149 106 -27 10 -65 33 -85 50 -32 27 -36 36 -39 90 -5 76 18 118 74 133 50
14 67 14 108 -3 43 -18 65 -61 65 -126 0 -47 1 -50 26 -50 26 0 26 0 19 58
-11 85 -35 123 -94 148 -46 19 -108 17 -158 -5z"/>
<path d="M4380 1078 c-82 -297 -95 -358 -81 -358 13 0 30 42 49 120 l18 75
114 0 114 0 20 -80 c21 -80 45 -135 46 -105 0 13 1 13 11 0 8 -12 9 -11 4 6
-55 200 -175 636 -175 639 0 3 -8 5 -18 5 -15 0 -31 -48 -102 -302z m200 -115
c0 -8 -31 -13 -100 -15 -80 -2 -100 0 -100 11 0 14 86 354 97 381 5 13 102
-343 103 -377z"/>
<path d="M4740 1066 c0 -173 3 -322 6 -331 15 -38 24 14 24 138 l0 127 73 0
73 0 70 -132 c39 -72 78 -136 87 -142 26 -17 33 3 13 37 -10 18 -34 61 -54 97
-19 36 -43 80 -54 98 -24 43 -23 43 16 69 42 27 86 113 86 167 -1 75 -50 151
-113 175 -16 6 -73 11 -128 11 l-99 0 0 -314z m219 266 c75 -38 101 -129 63
-216 -27 -60 -63 -76 -172 -76 l-80 0 0 155 0 155 78 0 c54 0 87 -5 111 -18z"/>
<path d="M5170 1063 c0 -188 4 -324 10 -333 9 -13 10 -13 10 0 0 13 1 13 10 0
9 -13 10 -13 10 0 0 13 1 13 10 0 9 -13 10 -13 10 0 0 13 1 13 10 0 9 -13 10
-13 10 0 0 13 1 13 10 0 9 -13 10 -13 10 0 0 13 1 13 10 0 9 -13 10 -13 10 0
0 13 1 13 10 0 9 -13 10 -13 10 0 0 13 1 13 10 0 9 -13 10 -13 10 0 0 13 1 13
10 0 5 -8 10 -10 10 -5 0 6 14 11 31 11 65 3 120 68 127 148 6 79 -3 104 -60
159 l-50 49 30 31 c40 41 55 83 47 127 -19 99 -69 130 -210 130 l-95 0 0 -317z
m205 271 c72 -34 87 -152 26 -206 -29 -26 -38 -28 -111 -28 l-80 0 0 125 0
125 66 0 c39 0 79 -6 99 -16z m24 -292 c101 -51 107 -200 11 -256 -23 -14 -58
-21 -117 -24 l-83 -5 0 152 0 151 78 0 c54 0 87 -5 111 -18z"/>
<path d="M5980 1048 l0 -328 25 0 25 0 2 287 3 286 129 -286 c116 -257 132
-287 153 -287 l23 0 0 329 c0 308 -1 329 -17 327 -17 -3 -18 -26 -23 -277 -6
-304 -4 -300 -63 -159 -16 36 -67 148 -116 250 -80 169 -89 184 -114 185 l-27
2 0 -329z"/>
<path d="M6990 1048 l0 -328 25 0 25 0 0 150 0 150 135 0 c122 0 135 2 135 18
0 16 -12 17 -132 17 l-133 0 -3 143 -3 142 136 0 c123 0 135 2 135 18 0 16
-13 17 -160 17 l-160 0 0 -327z"/>
<path d="M7380 1048 c0 -321 0 -328 20 -328 19 0 20 7 20 150 l0 150 135 0
c123 0 135 2 135 18 0 16 -11 18 -122 17 -68 -1 -129 1 -135 3 -10 3 -13 41
-13 143 l0 139 140 0 c127 0 140 2 140 18 0 15 -14 17 -160 17 l-160 0 0 -327z"/>
<path d="M8140 1048 l0 -328 165 0 165 0 0 25 0 25 -145 0 -145 0 0 135 0 135
140 0 c133 0 140 1 140 20 0 19 -7 20 -140 20 l-140 0 0 130 0 130 140 0 c127
0 140 2 140 18 0 16 -13 17 -160 17 l-160 0 0 -327z"/>
<path d="M8520 1358 c0 -16 10 -18 70 -18 l70 0 0 -310 0 -310 25 0 25 0 0
310 0 310 70 0 c60 0 70 2 70 18 0 16 -14 17 -165 17 -151 0 -165 -1 -165 -17z"/>
<path d="M9070 1048 l0 -328 160 0 160 0 0 25 0 25 -140 0 -140 0 0 135 0 135
140 0 c133 0 140 1 140 20 0 19 -7 20 -140 20 l-140 0 0 130 0 130 140 0 c127
0 140 2 140 18 0 16 -13 17 -160 17 l-160 0 0 -327z"/>
<path d="M10625 1370 c-3 -4 29 -83 70 -175 l75 -167 0 -154 c0 -147 1 -154
20 -154 19 0 20 7 20 154 l0 154 75 168 c41 92 72 170 70 173 -22 21 -38 -2
-96 -140 -35 -82 -66 -149 -70 -149 -3 0 -34 67 -68 148 -57 137 -79 169 -96
142z"/>
<path d="M11360 1358 c0 -16 10 -18 75 -18 l75 0 0 -310 c0 -303 0 -310 20
-310 20 0 20 7 20 310 l0 310 75 0 c65 0 75 2 75 18 0 16 -14 17 -170 17 -155
0 -170 -2 -170 -17z"/>
<path d="M11760 1048 l0 -328 160 0 160 0 0 25 0 25 -145 0 -145 0 0 135 0
135 145 0 c138 0 145 1 145 20 0 19 -7 20 -145 20 l-145 0 0 130 0 130 145 0
c132 0 145 2 145 18 0 16 -13 17 -160 17 l-160 0 0 -327z"/>
<path d="M12155 1371 c-3 -2 -5 -150 -5 -328 0 -316 0 -323 20 -323 20 0 20 7
20 287 0 157 3 284 6 280 3 -3 41 -90 83 -194 89 -216 103 -230 139 -146 11
26 49 116 83 198 l64 150 3 -287 c2 -280 3 -288 22 -288 20 0 20 8 20 328 l0
328 -24 0 c-22 0 -32 -18 -113 -213 -48 -117 -91 -213 -94 -213 -3 0 -45 96
-94 214 -72 175 -92 214 -107 213 -11 -1 -21 -3 -23 -6z"/>
</g>
</svg>
